<svg data-v-0dd9719b="" version="1.0" xmlns="http://www.w3.org/2000/svg" xmlns:xlink="http://www.w3.org/1999/xlink" width="100%" height="100%" viewBox="0 0 340.000000 250.000000" preserveAspectRatio="xMidYMid meet" color-interpolation-filters="sRGB" style="margin: auto;"> <rect data-v-0dd9719b="" x="0" y="0" width="100%" height="100%" fill="#fff" fill-opacity="1" class="background"></rect> <rect data-v-0dd9719b="" x="0" y="0" width="100%" height="100%" fill="url(#watermark)" fill-opacity="1" class="watermarklayer"></rect> <g data-v-0dd9719b="" fill="#333" class="icon-text-wrapper icon-svg-group iconsvg" transform="translate(47.375,93.39310455322266)"><g class="iconsvg-imagesvg" transform="translate(0,0)"><g><rect fill="#333" fill-opacity="0" stroke-width="2" x="0" y="0" width="60" height="63.213789034514726" class="image-rect"></rect> <svg x="0" y="0" width="60" height="63.213789034514726" filtersec="colorsb3799642178" class="image-svg-svg primary" style="overflow: visible;"><svg xmlns="http://www.w3.org/2000/svg" viewBox="0.006116670090705156 0.006116670090705156 94.90999603271484 99.99388885498047"><defs><linearGradient id="a7e7d890f-267e-4348-886f-350f594f2f58" x1="34.93" y1="68.73" x2="94.92" y2="68.73" gradientUnits="userSpaceOnUse"><stop offset="0" stop-color="#1eedc4"></stop><stop offset="1" stop-color="#1e9eed"></stop></linearGradient><linearGradient id="b121486f6-a521-4e2f-a3d9-5c8b534b652c" x1="16.82" y1="45.25" x2="48.77" y2="87.85" gradientUnits="userSpaceOnUse"><stop offset="0" stop-color="#1e9eed"></stop><stop offset="1" stop-color="#090380"></stop></linearGradient><linearGradient id="c756f81bd-29d5-43c6-aa8f-f84e21dfecfc" x1="50.23" y1="22.05" x2="102.44" y2="79.48" gradientUnits="userSpaceOnUse"><stop offset="0" stop-color="#1e9eed"></stop><stop offset="1" stop-color="#090380"></stop></linearGradient><linearGradient id="df3ba3f6f-c034-4b05-9a0f-7c63ac093bf8" x1="38.39" y1="22.98" x2="18.96" y2="53.89" gradientUnits="userSpaceOnUse"><stop offset="0" stop-color="#1eedc4"></stop><stop offset="1" stop-color="#1e9eed"></stop></linearGradient></defs><g><g><path d="M47.46 100a12.53 12.53 0 0 1-12.53-12.53c0-13 5.39-25.52 15.17-35.34 9.28-9.32 21.05-14.66 32.28-14.66a12.53 12.53 0 1 1 0 25.06C73.54 62.53 60 73.7 60 87.47A12.53 12.53 0 0 1 47.46 100z" opacity=".8" fill="url(#a7e7d890f-267e-4348-886f-350f594f2f58)"></path><path d="M47.46 100a12.53 12.53 0 0 1-12.53-12.53c0-13.77-13.56-24.94-22.4-24.94a12.53 12.53 0 0 1 0-25.06c11.24 0 23 5.34 32.28 14.66C54.6 62 60 74.5 60 87.47A12.53 12.53 0 0 1 47.46 100z" opacity=".8" fill="url(#b121486f6-a521-4e2f-a3d9-5c8b534b652c)"></path><path d="M82.38 62.53c-11.23 0-23-5.34-32.28-14.66-9.78-9.82-15.17-22.37-15.17-35.34a12.53 12.53 0 0 1 25.06 0C60 26.3 73.54 37.47 82.38 37.47a12.53 12.53 0 1 1 0 25.06z" opacity=".8" fill="url(#c756f81bd-29d5-43c6-aa8f-f84e21dfecfc)"></path><path d="M12.53 62.53a12.53 12.53 0 0 1 0-25.06c8.84 0 22.4-11.17 22.4-24.94a12.53 12.53 0 0 1 25.06 0c0 13-5.39 25.52-15.18 35.34-9.27 9.32-21.04 14.66-32.28 14.66z" opacity=".8" fill="url(#df3ba3f6f-c034-4b05-9a0f-7c63ac093bf8)"></path></g></g></svg></svg> <!----></g></g> <g transform="translate(67,2.685647964477539)"><g data-gra="path-name" fill-rule="" class="tp-name iconsvg-namesvg" transform="translate(0,0)"><g transform="scale(1)"><g><path d="M18.98-37.27L19.16-37.62Q25.66-35.51 25.14-33.57L25.14-33.57Q25.14-32.87 24.08-31.46L24.08-31.46 35.68-31.46 37.97-34.28 42.01-30.59 41.84-30.41 11.6-30.41Q9.67-30.59 9.84-28.83L9.84-28.83 9.84-20.04 22.68-20.04 22.68-24.61 14.94-24.61 13.01-24.26 11.95-25.66 22.68-25.66 22.68-30.06 26.72-28.3 25.31-26.89 25.31-25.66 33.4-25.66 34.63-27.6 38.32-24.96 36.56-23.55 36.56-20.04 38.14-20.04 40.08-22.68 43.59-19.16 43.42-18.98 36.56-18.98 36.56-11.95Q34.63-10.72 33.93-10.9L33.93-10.9 33.93-13.36 25.31-13.36 25.31-10.37Q24.08-9.32 22.68-9.14L22.68-9.14 22.68-13.36 14.06-13.36 11.95-13.01 11.25-14.24 22.68-14.24 22.68-18.98 9.84-18.98Q9.84-9.49 8.09-4.92L8.09-4.92Q6.5-0.18 1.41 4.39L1.41 4.39 1.05 4.04Q7.38-2.99 7.03-18.98L7.03-18.98 7.03-26.37Q7.03-30.23 6.86-33.22L6.86-33.22 10.72-31.46 22.5-31.46Q22.32-31.64 22.15-32.34L22.15-32.34Q22.32-32.17 22.15-32.7L22.15-32.7Q21.45-35.16 18.98-37.27L18.98-37.27ZM33.93-20.04L33.93-24.61 25.31-24.61 25.31-20.04 33.93-20.04ZM33.93-18.98L25.31-18.98 25.31-14.24 33.93-14.24 33.93-18.98ZM33.57-7.91L35.16-9.84 38.67-7.38 36.91-5.8 36.91-3.16Q36.91 0.18 37.27 3.52L37.27 3.52Q35.68 4.75 34.28 4.92L34.28 4.92 34.28 1.23 16.7 1.23 16.7 4.04Q14.94 5.1 13.71 5.1L13.71 5.1Q14.06 1.76 14.06-1.58L14.06-1.58 14.06-4.22Q14.06-5.45 13.89-7.56L13.89-7.56Q13.89-9.14 13.89-9.67L13.89-9.67 17.4-7.91 33.57-7.91ZM34.28 0.35L34.28-6.86 18.46-6.86Q16.52-6.86 16.7-5.63L16.7-5.63 16.7 0.35 34.28 0.35ZM65.04-35.51L65.04-35.51Q69.79-33.57 69.96-33.4L69.96-33.4Q69.96-33.22 68.2-31.99L68.2-31.99 68.2-1.41 80.16-1.41 79.98-26.72Q82.79-25.66 84.9-24.43L84.9-24.43Q84.9-24.43 84.02-23.73L84.02-23.73Q83.14-23.03 83.14-22.85L83.14-22.85Q83.14-13.54 83.5-2.29L83.5-2.29Q83.67 1.23 83.67 2.29L83.67 2.29Q83.32 3.16 80.16 3.69L80.16 3.69 80.16-0.35 54.32-0.35Q54.14-0.35 53.26 1.05L53.26 1.05Q52.73 1.93 52.73 1.93L52.73 1.93Q51.15 1.05 49.22-0.53L49.22-0.53Q49.22-0.7 50.27-1.41L50.27-1.41Q51.15-2.11 51.15-2.11L51.15-2.11 51.33-27.6Q55.9-25.31 55.9-25.14L55.9-25.14Q56.07-24.96 54.84-24.26L54.84-24.26Q54.14-23.55 54.14-23.55L54.14-23.55 54.14-1.41 65.21-1.41Q65.21 2.64 65.21-25.49L65.21-25.49Q65.21-34.28 65.04-35.51ZM122.87-34.28L124.63-36.39Q129.02-33.05 128.5-32.87L128.5-32.87Q128.32-32.87 127.97-32.87L127.97-32.87Q126.39-32.7 125.86-31.99L125.86-31.99Q123.57-29.18 118.83-24.61L118.83-24.61Q124.28-21.45 132.71-20.74L132.71-20.74 132.89-20.39Q129.55-19.86 128.5-17.93L128.5-17.93Q122.87-19.51 116.89-23.2L116.89-23.2Q111.09-18.63 101.95-15.64L101.95-15.64 101.78-16.35Q109.69-20.04 115.31-24.61L115.31-24.61Q111.97-27.77 109.16-33.22L109.16-33.22 108.46-33.22 106.7-32.87 105.64-34.28 122.87-34.28ZM95.27-35.68L95.45-36.04Q99.14-34.28 100.2-33.57L100.2-33.57Q103.18-30.94 99.84-28.83L99.84-28.83Q99.32-28.83 98.79-30.41L98.79-30.41Q97.38-33.57 95.27-35.68L95.27-35.68ZM123.05-33.22L110.21-33.22Q113.03-28.48 116.72-25.84L116.72-25.84Q120.41-29.53 123.05-33.22L123.05-33.22ZM104.94-31.64L104.94-31.64 105.47-31.46Q97.56-9.32 97.91-9.32L97.91-9.32Q97.56-7.21 97.91-2.29L97.91-2.29Q98.26 2.29 97.56 2.81L97.56 2.81Q95.45 3.69 94.22 0.88L94.22 0.88Q94.22 0.35 94.75-2.11L94.75-2.11Q95.63-6.5 95.27-8.09L95.27-8.09Q94.75-9.14 91.23-10.2L91.23-10.2 91.23-10.72Q96.15-10.02 96.15-10.9L96.15-10.9Q97.91-14.24 104.94-31.64ZM91.05-26.89L91.23-27.25Q96.5-24.79 97.38-23.2L97.38-23.2Q98.79-20.39 95.8-19.16L95.8-19.16Q95.27-19.16 95.1-20.39L95.1-20.39Q94.04-24.26 91.05-26.89L91.05-26.89ZM115.31-14.41L115.31-20.74Q119.71-19.34 119.71-19.16L119.71-19.16Q119.71-19.16 119-18.63L119-18.63Q118.13-18.28 118.13-18.11L118.13-18.11 118.13-14.41 123.4-14.41 125.51-16.7 128.67-13.71 128.67-13.36 118.13-13.36 118.13-7.38 126.56-7.38 128.85-10.02 132.54-6.68 132.36-6.33 118.13-6.33 118.13 3.69Q116.54 4.57 114.96 4.75L114.96 4.75Q115.31-0.53 115.31-6.33L115.31-6.33 104.77-6.33 103.01-5.98 101.95-7.38 115.31-7.38 115.31-13.36 108.46-13.36 106.7-13.01 105.82-14.41 115.31-14.41ZM156.45-36.56L156.45-36.56Q160.14-34.8 159.96-34.8L159.96-34.8Q159.96-34.63 159.43-34.45L159.43-34.45Q158.73-34.28 158.55-34.1L158.55-34.1Q165.76-28.48 179.3-27.77L179.3-27.77 179.3-27.25Q176.48-26.89 175.43-25.14L175.43-25.14Q175.25-24.79 175.25-24.79L175.25-24.79Q168.4-26.72 163.83-29.18L163.83-29.18 166.11-27.25 166.11-26.89 158.55-26.89 158.55-24.08 165.06-24.08 167.17-25.84 170.33-23.38 170.16-23.03 165.23-23.03Q167.52-21.45 167.34-21.45L167.34-21.45Q167.34-21.45 167.17-21.27L167.17-21.27Q166.29-21.09 165.76-20.57L165.76-20.57Q165.06-20.04 163.48-18.46L163.48-18.46 169.98-18.46 172.44-20.92 175.78-17.58 175.61-17.4 165.23-17.4Q166.64-16.52 167.87-15.64L167.87-15.64Q167.87-15.64 167.7-15.47L167.7-15.47Q167.17-15.47 166.82-15.29L166.82-15.29Q171.74-10.55 178.77-10.02L178.77-10.02 178.77-9.49Q176.66-9.32 175.61-7.73L175.61-7.73Q169.8-10.37 166.29-14.94L166.29-14.94Q161.89-10.9 159.43-9.14L159.43-9.14 167.87-9.14 169.45-10.72 171.91-8.44 171.91-8.26 166.99-8.26 166.99-4.57 171.04-4.57 172.97-6.5 175.61-4.04 175.61-3.69 166.99-3.69 166.99 3.69 168.4 3.69Q170.33 0.35 171.39-2.64L171.39-2.64Q174.38-1.58 174.38-1.23L174.38-1.23Q174.38-1.23 174.2-1.05L174.2-1.05Q172.62-0.18 169.45 3.69L169.45 3.69 173.32 3.69 175.43 1.05 178.59 4.39 178.24 4.57 157.32 4.57 154.86 5.27 153.98 3.69 164.71 3.69 164.71-3.69 159.43-3.69 157.85-3.34 156.8-4.57 164.71-4.57 164.71-8.26 161.37-8.26 159.79-7.73 158.91-8.79Q156.8-7.38 155.21-6.33L155.21-6.33 154.86-6.86Q161.02-11.6 164.71-17.4L164.71-17.4 147.66-17.4Q148.01-17.23 148.89-16.7L148.89-16.7Q149.94-16.35 149.94-16.17L149.94-16.17Q149.94-16.17 149.41-15.82L149.41-15.82Q148.54-15.29 148.18-14.94L148.18-14.94Q152.75-13.71 155.04-12.66L155.04-12.66Q156.27-11.95 156.09-10.37L156.09-10.37Q155.74-8.79 154.69-9.84L154.69-9.84Q154.51-10.02 154.16-10.37L154.16-10.37Q151.52-12.83 147.48-14.06L147.48-14.06Q143.96-10.55 142.73-9.49L142.73-9.49 149.24-9.49 150.64-11.07 153.11-8.79 153.11-8.61 148.54-8.61 148.54-5.1 151.17-5.1 152.75-6.86 155.04-4.57 155.04-4.04 148.54-4.04 148.54 1.58 150.29 1.41Q150.47 0.88 151-0.18L151-0.18Q152.05-2.29 152.23-2.99L152.23-2.99Q154.34-2.29 154.86-1.93L154.86-1.93Q154.86-1.93 154.69-1.93L154.69-1.93Q153.28-1.41 151.35 1.41L151.35 1.41 155.57 1.05 155.74 1.58Q141.15 4.22 138.52 4.92L138.52 4.92Q137.64 3.87 137.29 2.64L137.29 2.64Q137.29 2.46 138.16 2.46L138.16 2.46Q141.15 2.46 146.43 1.93L146.43 1.93 146.43-4.04 143.26-4.04 141.15-3.69 140.27-5.1 146.43-5.1 146.43-8.61 144.84-8.61 143.44-8.26 142.73-9.49Q142.56-9.32 142.21-9.14L142.21-9.14Q139.04-6.5 137.11-5.63L137.11-5.63 136.93-5.98Q142.03-10.02 146.78-17.4L146.78-17.4 141.68-17.4 139.92-16.88 138.87-18.46 150.29-18.46Q150.12-18.63 149.94-19.34L149.94-19.34Q149.41-21.27 147.48-23.03L147.48-23.03 145.72-22.5 144.32-24.08 156.09-24.08 156.09-26.89 150.12-26.89 148.36-26.54 147.48-27.25Q142.21-24.43 137.11-22.85L137.11-22.85 136.93-23.38Q150.29-29.36 156.45-36.56ZM157.32-33.57L157.32-33.57Q152.05-29.71 148.89-27.95L148.89-27.95 161.54-27.95 162.95-29.53Q160.84-30.76 157.32-33.57ZM164.53-23.03L158.55-23.03 158.55-18.46 162.07-18.46Q163.65-20.57 164.53-23.03L164.53-23.03ZM156.09-23.03L148.71-23.03Q151.35-21.62 151.88-20.57L151.88-20.57Q152.4-19.51 151.35-18.46L151.35-18.46 156.09-18.46 156.09-23.03ZM140.45-2.81L140.8-3.34Q142.73-2.29 143.79-1.05L143.79-1.05Q144.49 0 143.79 1.05L143.79 1.05Q142.73 2.11 142.38 0.88L142.38 0.88Q142.38 0.88 142.38 0.7L142.38 0.7Q141.86-1.23 140.45-2.81L140.45-2.81ZM158.2-2.64L158.55-2.81Q161.37-0.88 161.89 0.35L161.89 0.35Q162.25 1.41 161.19 2.46L161.19 2.46Q160.31 3.34 159.96 1.93L159.96 1.93Q160.14-0.7 158.2-2.64L158.2-2.64Z" transform="translate(-1.0499999523162842, 37.619998931884766)"></path></g> <!----> <!----> <!----> <!----> <!----> <!----> <!----></g></g> <g data-gra="path-slogan" fill-rule="" class="tp-slogan iconsvg-slogansvg" fill="#333" transform="translate(37.23500061035156,48.88999938964844)"><!----> <!----> <g transform="scale(1, 1)"><g transform="scale(1)"><path d="M3.09-7.59L0.19-7.59L0.19-8.58L7.13-8.58L7.13-7.59L4.22-7.59L4.22 0L3.09 0L3.09-7.59ZM13.83 0L12.98-2.48L9.52-2.48L8.63 0L7.45 0L10.69-8.58L12-8.58L15.09 0L13.83 0ZM11.25-7.31L9.89-3.52L12.56-3.52L11.30-7.31L11.25-7.31ZM17.53-8.58L21.84-1.64L21.84-8.58L22.97-8.58L22.97 0L21.66 0L17.30-6.94L17.25-6.94L17.25 0L16.13 0L16.13-8.58L17.53-8.58ZM31.17-3.61L28.55-3.61L28.55-4.59L32.30-4.59L32.30 0L31.55 0L31.27-1.08Q30.28 0.09 28.45 0.14L28.45 0.14Q26.72 0.14 25.78-0.75L25.78-0.75Q24.38-2.06 24.42-4.36L24.42-4.36Q24.75-8.63 28.50-8.81L28.50-8.81Q31.69-8.63 32.16-6L32.16-6L31.03-6Q30.56-7.78 28.45-7.83L28.45-7.83Q25.78-7.64 25.64-4.31L25.64-4.31Q25.64-0.75 28.50-0.75L28.50-0.75Q29.53-0.75 30.28-1.31L30.28-1.31Q31.22-2.06 31.17-3.61L31.17-3.61ZM40.36-6.09L40.36-6.09L39.28-6.09Q39.19-7.73 37.13-7.83L37.13-7.83Q35.20-7.78 35.20-6.33L35.20-6.33Q35.20-5.39 36.23-5.25L36.23-5.25L38.67-4.69Q40.59-4.22 40.59-2.34L40.59-2.34Q40.55 0.05 37.22 0.14L37.22 0.14Q35.39 0.14 34.64-0.61L34.64-0.61Q33.70-1.31 33.75-2.77L33.75-2.77L34.88-2.77Q34.92-0.80 37.22-0.75L37.22-0.75Q39.47-0.80 39.52-2.20L39.52-2.20Q39.70-3.38 37.64-3.75L37.64-3.75L35.86-4.13Q34.03-4.64 34.03-6.19L34.03-6.19Q34.17-8.72 37.03-8.81L37.03-8.81Q40.27-8.81 40.36-6.09ZM43.22-5.06L47.72-5.06L47.72-8.58L48.89-8.58L48.89 0L47.72 0L47.72-3.98L43.22-3.98L43.22 0L42.05 0L42.05-8.58L43.22-8.58L43.22-5.06ZM56.34 0L55.50-2.48L52.03-2.48L51.14 0L49.97 0L53.20-8.58L54.52-8.58L57.61 0L56.34 0ZM53.77-7.31L52.41-3.52L55.08-3.52L53.81-7.31L53.77-7.31ZM60.05-8.58L64.36-1.64L64.36-8.58L65.48-8.58L65.48 0L64.17 0L59.81-6.94L59.77-6.94L59.77 0L58.64 0L58.64-8.58L60.05-8.58ZM71.44-1.03L76.73-1.03L76.73 0L69.98 0L69.98-0.94L75.23-7.59L70.36-7.59L70.36-8.58L76.73-8.58L76.73-7.59L71.44-1.03ZM79.17-1.03L84.33-1.03L84.33 0L78 0L78-8.58L84.23-8.58L84.23-7.59L79.17-7.59L79.17-4.92L83.86-4.92L83.86-3.89L79.17-3.89L79.17-1.03ZM92.58-8.58L89.67-4.41L92.72 0L91.27 0L88.92-3.52L86.58 0L85.17 0L88.27-4.41L85.36-8.58L86.81-8.58L88.97-5.30L91.17-8.58L92.58-8.58ZM93.98-8.58L95.16-8.58L95.16 0L93.98 0L93.98-8.58ZM98.53-8.58L102.84-1.64L102.84-8.58L103.97-8.58L103.97 0L102.66 0L98.30-6.94L98.25-6.94L98.25 0L97.13 0L97.13-8.58L98.53-8.58Z" transform="translate(-0.1875, 8.8125)"></path></g></g></g></g></g><defs v-gra="od"></defs></svg>